<?xml version="1.0" encoding="utf-8"?>
<!-- Generator: Adobe Illustrator 24.3.0, SVG Export Plug-In . SVG Version: 6.00 Build 0)  -->
<svg version="1.1" id="Слой_1" xmlns="http://www.w3.org/2000/svg" xmlns:xlink="http://www.w3.org/1999/xlink" x="0px" y="0px"
	 viewBox="0 0 1001 496" style="enable-background:new 0 0 1001 496;" xml:space="preserve">
<style type="text/css">
	.st0{fill:none;stroke:#FFFFFF;stroke-miterlimit:10;}
	.st1{display:none;fill-rule:evenodd;clip-rule:evenodd;fill:#4AF6CD;}
	.st2{fill:#FFFFFF;fill-opacity:0;}
	.st3{fill-rule:evenodd;clip-rule:evenodd;fill:#4AF6CD;}
	.st4{display:none;fill:#FFFFFF;enable-background:new    ;}
	.st5{font-family:'ArialMT';}
	.st6{font-size:21px;}
	.db {display: block;}
</style>
<g id="map">
	<path class="st0" d="M-9.1,231.3c0.5,0,1.1,0.1,2,0.2c2.1,0.2,6.4,0.8,11.9,2.9c1.7,0.6,4.8,2.2,10.9,5.3c3.8,1.9,5.7,2.9,6.9,3.6
		c3.5,2,6.5,3.8,9.8,6.9c4.4,4.1,7.1,6.7,8.2,10.9c0.5,1.9,0.6,3.8,2.1,4.8c1.5,1,3.3,0.5,5.3,0c11-2.7,8-1.6,10.9-2.6
		c9.7-3.3,8.7-4.1,13.3-5c5.5-1.1,7.8-0.1,9.5-2.1c2-2.4,0.1-5.2,1.7-8.3c1.1-2.2,4-4.5,11.6-5.2c2.6,0.5,6.4,1.5,10.6,3.6
		c1.2,0.6,3.2,1.4,4.8,2.9c5.6,5.1,5.2,13.3,18.7,26.4c6.2,6.1,17,14.7,19,16.3c8.1,6.5,10.4,7.8,12.4,11.8c4.5,9.1,1,19.8-0.3,23.5
		c-3,9-6.7,10.1-8.8,19.9c-0.8,4.1-1.6,7.9-0.3,12.4c1.8,6.4,5.4,5.9,9.7,13.9c4,7.6,5.7,16.6,5.7,16.6c0.7,3.9,0.7,6.1,2.7,7.8
		c3.2,2.8,6.9,0.1,10.3,2.1c4.3,2.6,1.8,9.1,4.5,19.6c0.7,2.7,3.2,12.1,10.6,19.3c6.6,6.5,9.6,3.8,16.6,10.9c3,3,10.4,10.4,9.4,18.7
		c-0.5,4.2-2.9,6.6-1.5,9.4c0.6,1.2,2.1,2.9,8.2,3.9c3.3,0.6,12.9,2.2,21.1-1.8c10.4-5,13.8-16.5,18.1-31.4
		c4.3-14.7,8.7-29.9,4.2-47.7c-3.1-12.4-6.5-10-17.5-37.4c-7.7-19.2-7.7-24.6-6.6-29.3c1.2-5.2,4-9.9,2.1-15.7
		c-1.7-5.2-5.9-7.9-7.8-9.4c-7.9-5.9-11.6-17.4-19-40.5c-6.1-19.1-8-34.7-8.8-43.5c-0.6-7.4-1.1-13.4-0.3-21.4
		c1.4-14.7,5.7-25.2,9.7-34.4c7.6-18,12.1-28.3,21.1-30.5c4.4-1,8,0.3,11.5-2.7c4.2-3.6,1.8-7.8,5.1-13.6c4.1-7,9.7-4.2,20.8-13.3
		c7.3-5.9,6.6-8.5,12.4-10.9c5.3-2.1,8.9-1.1,13-4.8c0.7-0.6,3.4-3.2,4.5-7.2c1.2-4.1-0.3-5.8,0-10c0.5-6.4,4.5-11.1,5.4-12.1
		c4.2-4.8,9.6-6.1,17.2-7.8c8.6-2,18.1-2.7,18.1-2.7c5.9-0.4,9.6-0.2,11.2-2.7c1.4-2.2-0.4-4.2,0.3-8.5c0.7-4.3,3.3-7.1,5.4-9.4
		c4.6-4.9,7-4.3,14.2-9.1c9.7-6.4,11.3-11.7,18.7-12.7c1.1-0.1,2.8,0.1,6,0.3c7,0.5,9.1,1.3,11.7-0.2c0.4-0.2,0-0.1,3.7-3.4
		c3.5-3.2,4.3-3.7,5.7-5.3c1.3-1.5,2.5-2.8,3.3-4.5"/>
</g>
<path id="bigloc4" class="st1" d="M267.8,370.5c3.6,0,6.5-2.9,6.5-6.5s-2.9-6.5-6.5-6.5c-3.6,0-6.5,2.9-6.5,6.5
	S264.2,370.5,267.8,370.5z"/>
<path id="bigloc3" class="st1" d="M234.3,276.3c3.6,0,6.5-2.9,6.5-6.5s-2.9-6.5-6.5-6.5s-6.5,2.9-6.5,6.5S230.7,276.3,234.3,276.3z"
	/>
<path id="bigloc2" class="st1" d="M241.7,161.1c3.6,0,6.5-2.9,6.5-6.5s-2.9-6.5-6.5-6.5s-6.5,2.9-6.5,6.5S238.1,161.1,241.7,161.1z"
	/>
<path id="bigloc1" class="st1 db" d="M261.3,150.1c3.6,0,6.5-2.9,6.5-6.5s-2.9-6.5-6.5-6.5c-3.6,0-6.5,2.9-6.5,6.5
	S257.7,150.1,261.3,150.1z"/>
<g id="loc4_1_">
	<circle id="l4" class="st2" cx="267.8" cy="364" r="11.9"/>
	<path id="lc4" class="st3" d="M267.8,367c1.7,0,3-1.3,3-3s-1.3-3-3-3c-1.7,0-3,1.3-3,3S266.1,367,267.8,367z"/>
</g>
<g id="loc3_1_">
	<circle id="l3" class="st2" cx="234.3" cy="269.8" r="11.9"/>
	<path id="lc3" class="st3" d="M234.3,272.8c1.7,0,3-1.3,3-3s-1.3-3-3-3s-3,1.3-3,3S232.6,272.8,234.3,272.8z"/>
</g>
<g id="loc2_1_">
	<circle id="l2" class="st2" cx="241.7" cy="154.6" r="11.9"/>
	<path id="lc2" class="st3" d="M241.7,157.6c1.7,0,3-1.3,3-3s-1.3-3-3-3s-3,1.3-3,3C238.7,156.2,240,157.6,241.7,157.6z"/>
</g>
<g id="loc1_1_">
	<circle id="l1_2_" class="st2" cx="261.3" cy="143.6" r="11.9"/>
	<path id="lc1" class="st3" d="M261.3,146.6c1.7,0,3-1.3,3-3s-1.3-3-3-3c-1.7,0-3,1.3-3,3S259.6,146.6,261.3,146.6z"/>
</g>
<text id="name4" transform="matrix(1 0 0 1 289.2162 360.9998)" class="st4 st5 st6">East Shore | Sebastian Inlet, FL</text>
<text id="name3" transform="matrix(1 0 0 1 253.6247 269.8002)" class="st4 st5 st6">East Shore | Ponce Inlet, FL</text>
<text id="name2" transform="matrix(1 0 0 1 246.2244 185.499)" class="st4 st5 st6">East Shore | Tybee Island, FL</text>
<text id="name1" transform="matrix(1 0 0 1 278.3832 146.5999)" class="st4 st5 st6 db">East Shore | Burkes Beach, FL</text>
</svg>
