<?xml version="1.0" encoding="utf-8"?>
<!-- Generator: Adobe Illustrator 24.3.0, SVG Export Plug-In . SVG Version: 6.00 Build 0)  -->
<svg version="1.1" id="Слой_1" xmlns="http://www.w3.org/2000/svg" xmlns:xlink="http://www.w3.org/1999/xlink" x="0px" y="0px"
	 viewBox="0 0 1001 496" style="enable-background:new 0 0 1001 496;" xml:space="preserve">
<style type="text/css">
	.st0{fill:none;stroke:#FFFFFF;stroke-width:2;stroke-miterlimit:10;}
	.st1{display:none;fill-rule:evenodd;clip-rule:evenodd;fill:#4AF6CD;}
	.st2{fill:#FFFFFF;fill-opacity:0;}
	.st3{fill-rule:evenodd;clip-rule:evenodd;fill:#4AF6CD;}
	.st4{display:none;fill:#FFFFFF;enable-background:new    ;}
	.st5{font-family:'ArialMT';}
	.st6{font-size:21px;}
	.db {display: block;}
	#loc1_1_:hover {fill:#f64af6;}
</style>
<g id="map">
	<path class="st0" d="M279.8,77.2c1.7-2.7,3.4-3.5,5.4-5.5c2.6-2.6,1.9-3.5,4-5.9c2.3-2.6,5-3.5,10.3-5.2c2-0.7,6.5-2,12.8-2.6
		c5.2-0.5,8.1-0.7,11.7,0.6c1.8,0.6,4.5,1.7,6.7,4.4c0.6,0.8,2.9,4,2.5,8.3c-0.1,0.8-0.3,3.3-2.2,5.7c-1.9,2.4-3.7,2.3-4,3.8
		c-0.3,2.1,3.1,2.8,3.7,6.1c0.6,2.8-1.3,5.3-1.6,5.7c-1.3,1.7-2.9,2.2-6.5,3.5c-7.1,2.7-6.1,2.9-8.3,3.4c-8.1,1.9-15.7-2.2-17-2.9
		c-2.4-1.3-7.2-4.6-9.4-6.1c-1.6-1.1-2.6-1.8-4.3-2.4c-2.7-0.8-3.9-0.2-5.3-1.4c-1.1-0.9-1.9-2.7-1.5-4.4c0.3-1.1,1.1-1.8,1.5-2.2
		C278.7,79.3,279.1,78.3,279.8,77.2z"/>
	<path class="st0" d="M445.9,132.5c1.9,0.2,8.9,0.9,13,0c3.1-0.7,5.1-2.4,6.9-3.9c4.7-3.9,4.1-6.8,6.9-7.8
		c5.2-1.9,12.3,5.6,13.1,6.5c1.9,2.1,5.8,5.5,7.5,11.3c1.6,5.4-0.6,6.2,1.1,10c1.6,3.7,5.8,6.4,14,11.8c3.7,2.4,5.9,3.6,5.9,5.4
		c0,2.7-4.7,4.7-5.3,4.9c-9,3.8-14.1-3.8-27.8-3.8c-9.6,0-14.4,3.7-18.5,0.2c-1.9-1.7-1-2.5-4.1-7.9c-4.2-7.2-6.6-6.7-8.2-11.7
		c-1.3-4.1-0.3-6.4-2.6-8.3c-1.6-1.3-3.5-1.4-4.6-3.5c-0.1-0.2-0.9-1.7-0.3-2.5C443.7,132.2,445.2,132.4,445.9,132.5z"/>
	<path class="st0" d="M233.6,110.9c-1.1-0.5-3.1-1.5-3.9-3.3c-0.7-1.5-0.2-3,0.6-5.5c0.4-1.3,1.2-3.8,3.4-6.2
		c0.5-0.6,1.7-1.8,3.5-2.9c2.9-1.7,4.6-1.3,5.5-2.9c0.7-1.1,0-1.6,0.7-3.2c0.2-0.6,1.1-2.4,3-3.1c1.6-0.6,3.6-0.2,4.8,1
		c0.3,0.3,0.7,0.8,0.8,1.4c0.2,1.2-0.9,1.8-2.3,4.1c-0.7,1.2-1.1,1.8-1.2,2.4c-0.3,2.2,1.8,3,1.7,5.1s-2.3,3.7-3.6,4.4
		c-1.4,0.7-3.6,1.1-5.7,1.1c-0.9,0-1.8-0.2-2.6,0.4c-1,0.6-1.3,1.8-1.4,2c-0.4,1.5,0.4,2,0.1,3.8c-0.1,0.4-0.3,1.8-1.1,2
		c-0.1,0-0.2,0-0.6-0.1C235.1,111.4,234.3,111.3,233.6,110.9z"/>
	<path class="st0" d="M698.9,379.3c4.4,11.6,6,12.9,6.9,16.9c1.9,8.3-3.6,9.5-2.9,21.4c0.3,5.2,0.6,10.4,4.4,13.9
		c3.9,3.6,7.5,1.7,14.2,6c5.4,3.5,5.3,6.1,7.8,6.2c5.5,0.1,5.9-12.8,16.8-23.5c6.6-6.6,14.1-9.3,20.2-11.6
		c12.3-4.5,15.1-1.7,25.5-4.8c19.7-5.9,35.5-23.6,32.8-29.4c-0.7-1.4-2.1-1.4-4.7-2.6c-8.2-3.6-11.1-10.5-17.1-20.7
		c-8.3-14-12.4-21-19.9-26.9c-7.8-6.1-16.4-9-19.5-10c-7.6-2.5-14.4-3.2-24.2-8.6c-0.6-0.4-2.6-1.4-5-3
		c-10.6-6.9-12.5-11.7-19.5-13.3c-2-0.5-5.4-1.3-7.8,0.6c-2.9,2.2-3,6.9-2.4,10c0.9,4.6,3.5,5.1,7.1,12.8c2.2,4.7,1.9,5.9,1.7,6.5
		c-1,2.9-4.6,2.8-7.2,6.8c-1.6,2.5-0.6,3-2,5c-3.1,4.5-8.8,1.9-14.3,6.2c-0.5,0.4-4.8,3.8-5.3,9.2c-0.6,5.8,3.6,10.6,4.8,11.9
		c3.3,3.7,5.1,2.8,6.5,5.9c1.4,3,0.1,4.7,1.5,10.4C697.8,376.1,698.2,377.3,698.9,379.3z"/>
	<path class="st0" d="M550.7,187.9c0.6-2.5,2.2-2.7,3.6-5.4c1.9-3.6,0.6-5.9,2.1-6.8c1.5-0.9,3.3,1,7.1,2.4c2.7,1,5.4,1.1,10.9,1.2
		c8.6,0.2,9.2-1,13.1,0.2c4.7,1.4,4.1,3.2,8.2,3.9c2,0.3,2.7,0,11.9-1.1c4.2-0.5,5.4-0.6,6.2,0.3c1.4,1.5,0.6,5.1-1.2,7.2
		c-1.2,1.4-2.6,2.1-7.5,3.5c-6.2,1.7-9.3,2.5-11.2,2.4c-3.9-0.2-4-1.5-13.4-4.4c-3.5-1.1-5.2-1.6-6.6-1.7c-4-0.2-5.3,1.1-12.1,2.6
		c-5.2,1.1-8.8,1.9-10.4,0C550,190.8,550.6,188.3,550.7,187.9z"/>
	<path class="st0" d="M599.5,216c2.5,2.1,3.2,2.7,4.3,4c1.2,1.5,1.9,2.4,1.9,3.7c0,1.4-0.7,2.4-1.7,4c-0.6,0.9-1.6,2.3-3.4,3.5
		c-1.5,1.1-3.8,1.6-8.4,2.6c-3,0.6-3.7,0.7-4.4,0.3c-1.9-1-2.3-3.9-2.4-4.6c-0.3-2.5,0.7-3,0.3-5.4c-0.2-1-0.5-2.8-1.9-3.9
		c-1.5-1.2-2.7-0.4-4.6-1.7c-0.5-0.4-1.8-1.3-1.9-2.6c-0.1-1.5,1.5-2.7,2-3.2c2.6-2,5.8-1.8,9.3-1.5c2.9,0.2,4.8,0.3,6.9,1.6
		C596.3,213.1,596,213,599.5,216z"/>
	<path class="st0" d="M624.2,251.4c0.4-0.2,1.5-0.6,4.8-1.3c1.5-0.3,2.2-0.5,2.5-0.5c2.6,0.1,4.4,1.9,4.5,2.1
		c0.4,0.5,1.4,1.6,1.6,3.3c0.2,2-0.7,4.2-2.3,5.1c-1.5,0.9-2.2,0-6.5,0c-2.4,0-4.2,0-6.4,0.6c-2.7,0.7-3.7,1.7-4.6,1.1
		c-1-0.7-0.8-2.7-0.7-3.9c0.1-1.2,0.2-2.2,1-3.2c0.2-0.3,0.6-0.7,4.1-2.4C623.3,251.8,623.8,251.5,624.2,251.4z"/>
	<path class="st0" d="M678.1,219.6c2,1.9,3.4,1.9,8.2,3.8c5.1,2,7.6,3,8.7,4.8c2.4,4-0.8,9.8-1,10c-2.9,4.9-8.4,6.5-11.8,7.5
		c-8.1,2.3-10.2-0.7-15.2,2.4c-2.8,1.8-3.9,3.9-7.5,4.7c-2.3,0.5-4.2,0.2-5.8,0c-2.8-0.4-6.1-0.9-7.7-3.2c-0.8-1.2-0.9-2.3-0.8-5.7
		c0.1-10.5,0.6-11-0.2-12.3c-1.6-2.7-5.2-3.4-11.5-4.7c-5-1-5.8-0.3-8.1-1.7c-3.7-2.2-5.3-6.1-6.2-8.3c-0.9-2.3-1.7-4.1-1.4-6.4
		c0.5-3.7,3.1-6,4.3-7.1c1.8-1.6,4-3.6,6.7-3.3s4.6,2.8,7.8,7.2c2.6,3.5,2.3,4.1,3.8,5.1c3.9,2.4,9.4,0.2,10-0.1
		c3.1-1.3,3-2.6,5.9-3.3c2.2-0.6,4.1-0.3,6.9,0.2c2.5,0.4,4.8,0.8,7.2,2.4c1.4,0.9,2.3,1.9,4.1,3.8
		C676.9,218,676.8,218.5,678.1,219.6z"/>
</g>
<path id="bigloc4" class="st1 db" d="M756.6,432.4c3.6,0,6.5-2.9,6.5-6.5s-2.9-6.5-6.5-6.5s-6.5,2.9-6.5,6.5S753,432.4,756.6,432.4z"/>
<path id="bigloc3" class="st1" d="M465.5,184.9c3.6,0,6.5-2.9,6.5-6.5s-2.9-6.5-6.5-6.5s-6.5,2.9-6.5,6.5S461.9,184.9,465.5,184.9z"
	/>
<path id="bigloc2" class="st1" d="M460.3,122.6c3.6,0,6.5-2.9,6.5-6.5s-2.9-6.5-6.5-6.5s-6.5,2.9-6.5,6.5S456.7,122.6,460.3,122.6z"
	/>
<path id="bigloc1" class="st1" d="M268.7,80.3c3.6,0,6.5-2.9,6.5-6.5s-2.9-6.5-6.5-6.5s-6.5,2.9-6.5,6.5S265.1,80.3,268.7,80.3z"/>
<g id="loc4_1_">
	<circle id="l4" class="st2" cx="756.6" cy="425.9" r="11.9"/>
	<path id="lc4" class="st3" d="M756.6,428.9c1.7,0,3-1.3,3-3s-1.3-3-3-3s-3,1.3-3,3S754.9,428.9,756.6,428.9z"/>
</g>
<g id="loc3_1_">
	<circle id="l3" class="st2" cx="465.5" cy="178.4" r="11.9"/>
	<path id="lc3" class="st3" d="M465.5,181.4c1.7,0,3-1.3,3-3s-1.3-3-3-3s-3,1.3-3,3S463.8,181.4,465.5,181.4z"/>
</g>
<g id="loc2_1_">
	<circle id="l2" class="st2" cx="460.3" cy="116.1" r="11.9"/>
	<path id="lc2" class="st3" d="M460.3,119.1c1.7,0,3-1.3,3-3s-1.3-3-3-3s-3,1.3-3,3C457.3,117.7,458.6,119.1,460.3,119.1z"/>
</g>
<g id="loc1_1_">
	<circle id="l1_2_" class="st2" cx="268.7" cy="73.8" r="11.9"/>
	<path id="lc1" class="st3" d="M268.7,76.8c1.7,0,3-1.3,3-3s-1.3-3-3-3s-3,1.3-3,3S267,76.8,268.7,76.8z"/>
</g>
<text id="name4" transform="matrix(1 0 0 1 642.8124 468.65)" class="st4 st5 st6 db">Hawaii Shore | Punalu’u Beach, HI</text>
<text id="name3" transform="matrix(1 0 0 1 139.9415 211.0114)" class="st4 st5 st6">Hawaii Shore | Eisenhower Beach, HI</text>
<text id="name2" transform="matrix(1 0 0 1 465.4999 94.847)" class="st4 st5 st6">Hawaii Shore | Log Cabins, HI</text>
<text id="name1" transform="matrix(1 0 0 1 18.6752 46.1219)" class="st4 st5 st6">Hawaii Shore | Barking Sands Beach, HI</text>
</svg>
