<svg width="69" height="21" viewBox="0 0 69 21" fill="none" xmlns="http://www.w3.org/2000/svg">
<g id="Arrows" opacity="0.25">
<path id="Shape" d="M8.77789 0.562669L0.564298 8.71345C-0.188099 9.46459 -0.188099 10.6838 0.564298 11.4324L8.77789 19.5881C9.5366 20.3392 10.7646 20.3354 11.5233 19.5881C12.2744 18.8357 12.2744 17.6215 11.5233 16.8691L6.71818 12.1016H22.1324C23.2459 12.1016 24.1467 11.202 24.1467 10.0885C24.1467 8.97625 23.2459 8.07537 22.1324 8.07537H6.68919L11.5233 3.28282C12.2744 2.53168 12.2744 1.31623 11.5233 0.565085C10.7658 -0.187313 9.53783 -0.188569 8.77789 0.562568V0.562669Z" fill="white"/>
<path id="Shape Copy" d="M59.8668 19.5872L68.0804 11.4365C68.8328 10.6853 68.8328 9.46609 68.0804 8.71746L59.8668 0.561846C59.1081 -0.189295 57.88 -0.185526 57.1214 0.561846C56.3702 1.31424 56.3702 2.52844 57.1214 3.28084L61.9265 8.04826L46.5123 8.04826C45.3988 8.04826 44.4979 8.94789 44.4979 10.0614C44.4979 11.1736 45.3988 12.0745 46.5123 12.0745L61.9555 12.0745L57.1214 16.8671C56.3702 17.6182 56.3702 18.8337 57.1214 19.5848C57.8788 20.3372 59.1068 20.3385 59.8668 19.5873V19.5872Z" fill="white"/>
</g>
</svg>
