<svg version="1.2" baseProfile="tiny-ps" xmlns="http://www.w3.org/2000/svg" width="1238" height="1990"><style>.shp0{fill:#ed1651}</style><g id="layer5"><g id="Layer"><path id="path27278" fill-rule="evenodd" class="shp0" d="m142.77 814.51 220.8-63.11s-2.36-14.75-10.28-22c-7.92-7.24-22.16-11.72-22.16-11.72L24.24 606.13s-9.75-3.27-16.87.67C.26 610.75.51 621 .51 621v142.8s-.77 13.67 19.02 44.32c19.8 30.64 66.68 22.84 66.68 22.84l56.56-16.45Z"/><path id="path27260" fill-rule="evenodd" class="shp0" d="m1021.77 469.96 205.4-115.15s3.1-19.89-4.82-27.14c-7.92-7.24-17.35-9.47-17.35-9.47L317.94 1.45s-9.74-3.28-16.86.67c-7.12 3.94-6.87 14.19-6.87 14.19v123.13s-.12 28.53 19.67 59.17c19.79 30.65 51.91 38.58 51.91 38.58l655.98 232.77Z"/><path id="path27258" fill-rule="evenodd" class="shp0" d="m1021.77 828.36 205.4-106.48s4.38-26.96-3.54-34.2c-7.92-7.24-18.63-11.08-18.63-11.08L24.22 247.44s-9.74-3.28-16.86.67C.24 252.05.49 262.3.49 262.3v123.13s-.12 28.53 19.67 59.18c19.79 30.64 51.91 38.57 51.91 38.57l949.7 345.18Z"/></g><path id="path27194" fill-rule="evenodd" d="M1205 318.19s11.99 1.82 22.16 11.72 10.29 22 10.29 22v163.03s-.49 22.27-9.62 42.3c-9.13 20.03-22.51 24.77-22.51 24.77l-27.82 10.11-886.48 322.2s-4.27 1.31-9.81 1.31c-5.55 0-9.81-1.31-9.81-1.31L24.41 824.54s-6.13-1.42-14.82-15.05C-.2 794.2.5 763.85.5 763.85s1.54 15.56 10.33 22.95c8.79 7.39 32.22-.72 32.22-.72l1134.46-412.33s45.05-18.39 45.05-37.07c0-12.9-17.55-18.44-17.55-18.44l-.01-.05Zm0 358.4s11.99 1.82 22.16 11.72 10.29 22 10.29 22v163.02s-.49 22.28-9.62 42.3c-9.13 20.03-22.51 24.77-22.51 24.77l-27.82 10.11-886.48 322.2V1054.3l886.48-322.2s45.05-18.39 45.05-37.07c0-12.9-17.55-18.44-17.55-18.44Zm-440.06 573.79c8.48 8.49 8.48 27.18 8.48 27.18v121.9s-.49 22.27-9.62 42.3c-9.13 20.03-22.5 24.77-22.5 24.77l-27.82 10.11-422.47 153.56v-218.42l422.47-153.55s42.98-16.33 51.46-7.85Zm-272.53 455.85c8.48 8.49 8.48 27.18 8.48 27.18v121.9s-.49 22.27-9.62 42.3c-9.13 20.03-22.5 24.77-22.5 24.77l-27.82 10.11-149.94 57.2v-218.42l149.94-57.19s42.97-16.33 51.46-7.85Z" style="fill:#2a0088"/></g></svg>